<svg xmlns="http://www.w3.org/2000/svg" width="24" height="24" viewBox="0 0 24 24" fill="currentColor"><path d="M12 2c5.51 0 10 4.48 10 10s-4.49 10-10 10C6.48 22 2 17.52 2 12S6.48 2 12 2Zm0 18.547a8.4 8.4 0 0 0 3.34-.684 35.319 35.319 0 0 0-1.822-6.475c-.021.011-.032.011-.054.022-4.815 1.681-6.55 5.022-6.703 5.336a8.482 8.482 0 0 0 5.239 1.8ZM3.453 12.01c0 2.19.835 4.197 2.191 5.705.195-.326 2.538-4.208 6.942-5.63.108-.032.227-.064.336-.097a25.421 25.421 0 0 0-.694-1.453c-4.263 1.28-8.406 1.225-8.775 1.214Zm4.914-7.733a8.581 8.581 0 0 0-4.73 5.976h.023c.479 0 3.951.003 7.874-1.041a53.896 53.896 0 0 0-3.167-4.935ZM12 3.475c-.694 0-1.367.076-2.007.228.24.325 1.79 2.43 3.19 5 3.036-1.139 4.327-2.864 4.479-3.08A8.522 8.522 0 0 0 12 3.475Zm6.605 3.135c-.184.238-1.616 2.082-4.761 3.362.195.401.39.824.564 1.236.065.152.12.304.184.445 2.766-.348 5.512.187 5.916.266l.028.005a8.502 8.502 0 0 0-1.93-5.314Zm-1.844 12.472a8.468 8.468 0 0 0 3.656-5.715c-.293-.098-2.636-.792-5.315-.37 1.117 3.07 1.573 5.565 1.66 6.085Z"/></svg>