<svg xmlns="http://www.w3.org/2000/svg" width="24" height="24" viewBox="0 0 24 24" fill="currentColor"><path d="M15.969 17.244c-1.307.156-2.594.3-3.966.236-2.243-.103-4.014-.535-4.014-.535 0 .218.014.426.04.62.292 2.215 2.196 2.347 4 2.41 1.82.062 3.44-.45 3.44-.45l.076 1.646s-1.274.684-3.542.81c-1.25.068-2.803-.032-4.612-.51-3.923-1.039-4.598-5.22-4.7-9.464a86.321 86.321 0 0 1-.016-2.613l.003-.828c0-4.338 2.843-5.61 2.843-5.61 1.433-.658 3.893-.935 6.45-.956h.062c2.557.02 5.018.298 6.452.956 0 0 2.842 1.272 2.842 5.61 0 0 .036 3.201-.396 5.424-.275 1.41-2.456 2.955-4.962 3.254Zm2.005-3.088V8.903c0-1.074-.273-1.927-.822-2.558-.567-.631-1.308-.955-2.229-.955-1.065 0-1.871.41-2.404 1.228l-.519.87-.518-.87c-.534-.819-1.34-1.228-2.405-1.228-.92 0-1.662.324-2.229.955-.549.631-.822 1.484-.822 2.558v5.253h2.081V9.057c0-1.075.452-1.62 1.357-1.62 1 0 1.502.647 1.502 1.927v2.79h2.069v-2.79c0-1.28.5-1.927 1.501-1.927.905 0 1.357.545 1.357 1.62v5.1Z"/></svg>